# xmcd
#
# Track frame offsets: 
#        150
#        450
#        19283
#        39926
#        61515
#        84267
#        102626
#        121985
#        136843
#        159460
#        177503
#        195597
#        195897
#        217776
#
# Disc length: 3190 seconds
#
# Revision: 0
# Processed by: cddbd v1.5.2PL0 Copyright (c) Steve Scherf et al.
# Submitted via: ExactAudioCopy v1.3
#
DISCID=a40c740e
DTITLE=Johnny Drummer - It's So Nice
DYEAR=1999
DGENRE=Modern Electric Blues
TTITLE0=I Wanna Get In Your Head Before I Get In Your Bed
TTITLE1=I'm Not Gonna Give You Up
TTITLE2=Knockin' At Your Door
TTITLE3=It's So Nice
TTITLE4=I'll Find A Way
TTITLE5=I Got A Problem In My Home
TTITLE6=Blue Collar Man
TTITLE7=Tag On Your Toe
TTITLE8=I Can't Stand The Rain
TTITLE9=A Woman, A Lover, A Friend
TTITLE10=I Got A Love
TTITLE11=Give Me A Sign
TTITLE12=I'm Trapped
TTITLE13=Dragnet
EXTD=
EXTT0=
EXTT1=
EXTT2=
EXTT3=
EXTT4=
EXTT5=
EXTT6=
EXTT7=
EXTT8=
EXTT9=
EXTT10=
EXTT11=
EXTT12=
EXTT13=
PLAYORDER=
